<svg xmlns="http://www.w3.org/2000/svg" xmlns:xlink="http://www.w3.org/1999/xlink" width="274.97" height="99.71" viewBox="0 0 274.97 99.71"><defs><style>.cls-1{fill:#557a4d;}.cls-2{fill:#14b53a;fill-opacity:0.91;}.cls-3{fill:#fcd116;}.cls-4{fill:#ce1126;}.cls-5{fill:#100700;opacity:0.88;}.cls-13,.cls-5,.cls-6{isolation:isolate;}.cls-6{opacity:0.82;filter:url(#filter4597);}.cls-7{fill:#a7b5c1;}.cls-13,.cls-8{fill:none;}.cls-8{stroke:#468dc6;stroke-width:3px;}.cls-9{fill:#fff;}.cls-10{fill:#938585;}.cls-11{fill:#353532;}.cls-12{fill:#70706f;stroke:#000;stroke-miterlimit:10;}.cls-13{opacity:0.55;}.cls-14{font-size:61.21px;fill:#114904;font-family:Athelas-Bold, Athelas;font-weight:700;}</style><filter id="filter4597" x="33.42" y="15.88" width="1.02" height="1.04" name="filter4597"><feGaussianBlur result="feGaussianBlur4599" stdDeviation="1.09"/></filter></defs><title>KibLogo</title><g id="Stilou"><path id="_Path_" data-name="&lt;Path&gt;" class="cls-1" d="M149.18,14.66l14.71,13.06L211.7,73.87l10.68,6.22-5.25-9-56.66-58.8.55-.44L173,23.78l.55-.79-4.6-5.19-9.57-9.67-1.4.76L155,6a31,31,0,0,0-3.68,3.34A30,30,0,0,0,149.18,14.66Z" transform="translate(33.43 15.9)"/></g><g id="tamtam"><g id="layer6"><g id="g4223"><g id="g4252"><g id="g4326"><g id="g38"><path id="path40" class="cls-2" d="M209,50.88a44.3,44.3,0,0,1-14.46-1.78c-6.94-1.84-10.08-4.23-12.12-6a33.37,33.37,0,0,0-1.77,3.47c-1.45,2.64,3.26,6.59,10.5,8.62s13.41,1.39,15.48-.79A25.71,25.71,0,0,0,209,50.88Z" transform="translate(33.43 15.9)"/></g><g id="g4365"><path id="path4236" class="cls-3" d="M173.42,60.06a6.73,6.73,0,0,0,1.17,2.82,19,19,0,0,0,8,5.57c3,1,10.65,1.62,14.72.11a4.59,4.59,0,0,0,2-1.23c1.15-2.84,7.15-12.78,7.15-12.78A11.93,11.93,0,0,1,203,56a38,38,0,0,1-11.73-.82c-3.08-.94-9.92-4.12-10.77-6.93,0-.15-.09-1.15-.09-1.15" transform="translate(33.43 15.9)"/><path id="path4235" class="cls-4" d="M197.68,68.37c-3.25,1.68-12.1,1.22-15.35,0-3-1.16-6.93-4.08-8.24-6.09a11.35,11.35,0,0,1-.72-2.19l-.82,1-7.43,9.61a4.83,4.83,0,0,0,1.45,2.48c2.8,2.57,7,5.6,11,6.61,3.59.91,11.91,1.87,15.48.93a17.45,17.45,0,0,0,2.71-1.11l0,0L198.94,69l.63-1.89S198.19,68.1,197.68,68.37Z" transform="translate(33.43 15.9)"/></g></g><g id="Djembe"><path id="path54" class="cls-5" d="M205.36,25.17C189.63,21,177.84,14.69,177.43,10.43a2.59,2.59,0,0,0-.65.91c-.46,1.11.95,24.83.95,24.83.29,4.9,7.64,10.59,17.67,13.24s20.38,1.49,24.25-2.31c0,0,18.63-18.64,19-19.43a2.16,2.16,0,0,0,.15-1C235.27,29.85,221.09,29.32,205.36,25.17Zm24.83,5.69-3.75,4.28,3.15-4.22Zm-5.93.38,1.71-.49-4.68,5.41Zm-4.61-.06-5.81,7,4.3-7.24Zm-20.08-5.5a5.56,5.56,0,0,1,1.21.52L196.2,38.71l2.61-13S199,25.52,199.57,25.68Zm-6-1.88a2.51,2.51,0,0,0,.91.31l-3.21,10.34,1.61-11.05A3.88,3.88,0,0,1,193.62,23.8Zm-6.28-2.67c.43.33.63.31.63.31L186.2,33.32l.52-12.79A2.82,2.82,0,0,0,187.33,21.13Zm-4.07-2.3L181.9,32.26l.3-13.86ZM180,36c.14-6.32.45-18.59.45-18.59l1,.4s-.71,14.4-.58,19.13a28.88,28.88,0,0,0,.61,3.58A8.24,8.24,0,0,1,180,36Zm2.74,2.31c.08-5,1.32-18.86,1.32-18.86a.57.57,0,0,1,.6.16,2.83,2.83,0,0,0,1,.49s-1,16.77-1,18.95a28.65,28.65,0,0,0,.53,4.47S182.69,42.12,182.75,38.26Zm4.52,6c-.35-.31-.42-2.52-.32-3.84.09-1.13.41-5.6.28-6.42s2-12.1,2-12.1l.85.23a2.69,2.69,0,0,0,.78.64c.4.18.95.46.95.46s-1.14,9.45-1.55,12.3c-.23,1.58-.28,3.68-.28,3.68a9.51,9.51,0,0,0-.62,2.65c-.05.84-.63,3.37-.63,3.37A14.76,14.76,0,0,1,187.27,44.29Zm6.08,1.32a2.8,2.8,0,0,0-.8,1l-1.21-.75s0-5,.42-7.69c.58-4.18,3.82-13.44,3.82-13.44l2.22.59s-2.07,10.48-2.71,13.95c-.53,2.89-.83,4.33-.83,4.33A4.78,4.78,0,0,1,193.36,45.61Zm6.43,1.62-.71,1a17.93,17.93,0,0,0-2.19-.43,6.85,6.85,0,0,1-1.56-.34s.36-1.56.44-2a2.85,2.85,0,0,0-.43-1.27s2.21-5.84,2.9-8S201,28.07,201,28.07s1.53-1.7,2.36-1.2.35-.42.85.65-.74,6-.74,6l-2.67,12S200.26,46.57,199.79,47.24Zm6.42-19.75a17.92,17.92,0,0,1,2.67.63c1.59.5,3.05,1.1,3.05,1.1l-9.35,14ZM200.85,49l.54-1.3a5.63,5.63,0,0,0,.25-1.31,65.83,65.83,0,0,0,4.16-6c1.36-2.39,7.11-10.84,7.11-10.84l4.24,1s-4.37,7.87-5.79,10.17a39.39,39.39,0,0,1-7,8.48Zm5.19.72a10.22,10.22,0,0,0,2.52-2.22c.71-1,1.3-2.47,2.32-3.79s9.64-12.4,9.64-12.4l2.58,0s-4.3,7.52-6.74,10.64C210.78,49.06,206,49.76,206,49.76Zm4.95-.28a32.54,32.54,0,0,0,8.36-9.28c1.67-2.9,7.66-9,7.66-9l1.21-.18s-4.8,7-7.18,10.09C214.8,49.18,211,49.47,211,49.47Zm14.55-10.75c-2.4,2.83-7.76,8.06-7.76,8.06s4.6-6,6.72-8a97.69,97.69,0,0,0,6.84-7.87l1.21-.18S228.56,35.16,225.54,38.73Z" transform="translate(33.43 15.9)"/><g class="cls-6"><path class="cls-7" d="M238.94,22.45a2.3,2.3,0,0,1-.14.49c-1.74,4.24-16.1,4.27-32.05.05S179.27,11.92,181,7.68a2.53,2.53,0,0,1,.25-.46c-1.69.5-2.81,1.23-3.2,2.2-1.73,4.21,10.71,11.27,27.78,15.78s32.31,4.75,34,.54C240.28,24.78,239.93,23.65,238.94,22.45Z" transform="translate(33.43 15.9)"/><path class="cls-8" d="M238.94,22.45a2.3,2.3,0,0,1-.14.49c-1.74,4.24-16.1,4.27-32.05.05S179.27,11.92,181,7.68a2.53,2.53,0,0,1,.25-.46c-1.69.5-2.81,1.23-3.2,2.2-1.73,4.21,10.71,11.27,27.78,15.78s32.31,4.75,34,.54C240.28,24.78,239.93,23.65,238.94,22.45Z" transform="translate(33.43 15.9)"/></g></g></g></g></g><path class="cls-9" d="M207.07,22.14" transform="translate(33.43 15.9)"/><path class="cls-10" d="M183.14,65.64" transform="translate(33.43 15.9)"/><path class="cls-10" d="M214.1,67.12" transform="translate(33.43 15.9)"/><path class="cls-11" d="M177.91,10.45c-.09,2,2.2,3.66,3.33,4.59a34.57,34.57,0,0,0,5.85,3.42c4.69,2.21,10.89,4.43,11.88,4.75a146.8,146.8,0,0,0,18.54,4.46,83.87,83.87,0,0,0,9.63,1,53.47,53.47,0,0,0,6.3-.15,28.37,28.37,0,0,0,4.41-1A4.14,4.14,0,0,0,239.57,26c.36-.74-.27-3.19-.45-2.38-.5,2.27-1.89,2.15-3.42,2.6-4.84,1.41-15.3-.59-20.07-1.56-3.37-.68-10.3-2.27-13.59-3.19a125.53,125.53,0,0,1-12.69-5.13c-1.22-.63-6.12-3.27-7.56-5.79-1.2-2.11,0-3.18.54-3.64C185,4.78,178,7.77,177.91,10.45Z" transform="translate(33.43 15.9)"/><path class="cls-12" d="M238.75,24c-1.48,3.63-15.46,3-31.22-1.37S180.2,11.79,181.68,8.17s15.46-3,31.22,1.37S240.23,20.42,238.75,24Z" transform="translate(33.43 15.9)"/><path id="path42" class="cls-13" d="M207.63,52.87c.15-.1.48-.62.6-.74s-8.85,1.12-15.25-.43c-4.38-1.06-11.37-6.85-11-7.7a1.11,1.11,0,0,0-.24,1.49c.2.35,6.17,5.74,11.55,7.23C196.64,53.63,205,54,207.63,52.87Z" transform="translate(33.43 15.9)"/><path id="path42-2" data-name="path42" class="cls-13" d="M207.11,53.75c-1,0-8.7,1.4-15.06-.25-5.16-1.34-11.37-6.85-11-7.7a1.11,1.11,0,0,0-.24,1.49c.2.35,4,5,11.55,7.23C195.69,55.47,206.42,55.48,207.11,53.75Z" transform="translate(33.43 15.9)"/></g><g id="textkibml"><text x="33.43" y="15.9"></text><text class="cls-14" transform="translate(33.45 64.84) scale(0.86 1)">Kib@ru</text></g></svg>