<svg xmlns="http://www.w3.org/2000/svg" viewBox="0 0 51.03 17.86"><defs><style>.cls-1{fill:#557a4d;}.cls-2{fill:#14b53a;fill-opacity:0.91;}.cls-3{fill:#fcd116;}.cls-4{fill:#ce1126;}.cls-5{fill:#100700;opacity:0.88;}.cls-12,.cls-13,.cls-5{isolation:isolate;}.cls-6{opacity:0.82;}.cls-7{fill:#a7b5c1;}.cls-12,.cls-8{fill:#fff;}.cls-9{fill:#938585;}.cls-10{fill:#353532;}.cls-11{fill:#70706f;stroke:#000;stroke-miterlimit:10;stroke-width:0.25px;}.cls-12{opacity:0.55;}.cls-13{font-size:14.19px;fill:#114904;font-family:Athelas-Bold, Athelas;font-weight:700;}</style></defs><title>Asset 1</title><g id="Layer_2" data-name="Layer 2"><g id="Layer_1-2" data-name="Layer 1"><g id="Layer_1-3" data-name="Layer 1"><g id="Stilou"><path id="_Path_" data-name=" Path " class="cls-1" d="M33.78,2.59l3.3,2.82,10.81,10,2.5,1.41L49.29,15,36.58,2.39l.1-.1,2.7,2.52.2-.1-1-1.11-2.3-2.11-.3.1-.7-.6-.9.6C34.18,1.88,34,2.29,33.78,2.59Z"/></g><g id="tamtam"><g id="layer6"><g id="g4223"><g id="g4252"><g id="g4326"><g id="g38"><path id="path40" class="cls-2" d="M45.49,10a7.42,7.42,0,0,1-2.6-.4,4.76,4.76,0,0,1-2.2-1.21c-.1.2-.2.5-.3.7-.3.5.6,1.41,1.9,1.81s2.4.3,2.8-.2A4.38,4.38,0,0,0,45.49,10Z"/></g><g id="g4365"><path id="path4236" class="cls-3" d="M39,12a1.44,1.44,0,0,0,.2.6,3.27,3.27,0,0,0,1.5,1.11,4.9,4.9,0,0,0,2.7,0,.54.54,0,0,0,.4-.3c.2-.6,1.3-2.62,1.3-2.62l-.6.3a5,5,0,0,1-2.1-.2c-.6-.2-1.8-.91-1.9-1.41v-.2"/><path id="path4235" class="cls-4" d="M43.39,13.66a4.45,4.45,0,0,1-2.8,0,3.75,3.75,0,0,1-1.5-1.31.76.76,0,0,1-.1-.5l-.2.2-1.3,2a.55.55,0,0,0,.3.5,5.58,5.58,0,0,0,2,1.41,6.73,6.73,0,0,0,2.8.2c.2-.1.3-.1.5-.2h0l.6-2.21.1-.4C43.79,13.46,43.49,13.66,43.39,13.66Z"/></g></g><g id="Djembe"><path id="path54" class="cls-5" d="M44.79,4.8c-2.9-.91-5-2.21-5.1-3l-.1.1c-.1.2.2,5.13.2,5.13.1,1,1.4,2.21,3.2,2.72s3.7.3,4.4-.5c0,0,3.4-3.93,3.4-4V5C50.19,5.81,47.59,5.71,44.79,4.8ZM49.29,6l-.7.81.7-.81Zm-1.1,0,.3-.1L47.69,7Zm-.8,0-1.1,1.51L47.09,6ZM43.69,4.9c.1,0,.1.1.2.1l-.8,2.62.5-2.72Zm-1-.4c.1,0,.1.1.2.1l-.6,2.11.3-2.32c0,.1,0,.1.1.1ZM41.49,4h.1l-.3,2.52.1-2.62A.1.1,0,0,1,41.49,4Zm-.7-.5-.2,2.82V3.39ZM40.19,7c0-1.31.1-3.83.1-3.83l.2.1s-.1,3-.1,4c0,.2.1.5.1.7a1.71,1.71,0,0,1-.3-1Zm.5.5c0-1,.2-3.93.2-3.93H41c.1,0,.1.1.2.1S41,7.22,41,7.62a2.8,2.8,0,0,0,.1.91A1,1,0,0,1,40.69,7.52Zm.8,1.31a2.23,2.23,0,0,1-.1-.81c0-.2.1-1.21.1-1.31s.4-2.52.4-2.52h.2a.1.1,0,0,0,.1.1.35.35,0,0,1,.2.1s-.2,2-.3,2.52a5.45,5.45,0,0,1-.1.81,1.1,1.1,0,0,0-.1.5,5.71,5.71,0,0,1-.1.7c-.1,0-.2-.1-.3-.1Zm1.1.2c-.1.1-.1.1-.1.2l-.2-.2a12.81,12.81,0,0,1,.1-1.61,29,29,0,0,1,.7-2.82l.4.1s-.4,2.21-.5,2.92a6.67,6.67,0,0,1-.2.91c-.1.3-.1.4-.2.5Zm1.2.4-.2.2c-.1,0-.3-.1-.4-.1a.37.37,0,0,1-.3-.1A2.29,2.29,0,0,0,43,9a.37.37,0,0,0-.1-.3s.4-1.21.5-1.71.5-1.71.5-1.71.3-.3.4-.2c.3.2.2,0,.3.2a3.77,3.77,0,0,1-.2,1.21L43.89,9c.1,0,0,.2-.1.4Zm1.1-4.13c.2,0,.3.1.5.1l.6.2-1.7,2.92ZM44,9.74l.1-.3v-.3c.3-.4.5-.81.8-1.21s1.3-2.21,1.3-2.21l.8.2S46.19,7.52,46,8a10.22,10.22,0,0,1-1.3,1.81Zm.9.2c.2-.1.3-.3.5-.5a6,6,0,0,1,.4-.81L47.49,6H48s-.8,1.61-1.2,2.21c-1,1.51-1.9,1.71-1.9,1.71Zm.9-.1a7,7,0,0,0,1.5-1.91A13.39,13.39,0,0,1,48.69,6h.2s-.9,1.51-1.3,2.11c-1.1,1.71-1.8,1.71-1.8,1.71Zm2.6-2.21A21.05,21.05,0,0,1,47,9.33s.8-1.21,1.2-1.71A16.78,16.78,0,0,0,49.39,6h.2a14.14,14.14,0,0,1-1.2,1.61Z"/><g class="cls-6"><path class="cls-7" d="M50.89,4.2v.1c-.3.91-2.9.91-5.8,0s-5-2.32-4.7-3.22V1c-.3.1-.5.2-.6.5-.3.91,1.9,2.32,5,3.32s5.9,1,6.2.1A.89.89,0,0,0,50.89,4.2Z"/></g></g></g></g></g><path class="cls-8" d="M45.29,3"/><path class="cls-9" d="M40.29,13.06"/><path class="cls-9" d="M46.69,13.36"/><path class="cls-10" d="M40.09,1.58c0,.4.4.7.6.91a6.07,6.07,0,0,0,1,.7,12.53,12.53,0,0,0,2.1.91A19.09,19.09,0,0,0,47,5a9.8,9.8,0,0,0,1.7.2h1.1a2.34,2.34,0,0,0,.8-.2l.3-.3c.1-.1,0-.6-.1-.5-.1.4-.3.4-.6.5a8.31,8.31,0,0,1-3.5-.3,21,21,0,0,1-2.4-.6,14.69,14.69,0,0,1-2.2-1c-.2-.1-1.1-.6-1.3-1.11a.53.53,0,0,1,.1-.81C41.29.48,40.09,1.08,40.09,1.58Z"/><path class="cls-11" d="M50.79,4.5c-.3.7-2.8.5-5.7-.4s-4.9-2.21-4.6-2.92,2.8-.5,5.7.4S51.09,3.8,50.79,4.5Z"/><path id="path42" class="cls-12" d="M45.29,10.34a.35.35,0,0,0,.1-.2,9.13,9.13,0,0,1-2.8-.1c-.8-.2-2.1-1.41-2-1.61a.19.19,0,0,0,0,.3,5,5,0,0,0,2.1,1.51A3.88,3.88,0,0,0,45.29,10.34Z"/><path id="path42-2" class="cls-12" d="M45.19,10.64a6.26,6.26,0,0,1-2.7-.1c-.9-.3-2.1-1.51-2-1.71a.19.19,0,0,0,0,.3,4.25,4.25,0,0,0,2.1,1.61C43.09,11,45,11,45.19,10.64Z"/></g><g id="textkibml"><text class="cls-13" transform="translate(0 11.7) scale(0.8 1)">Kib@ru</text></g></g></g></g></svg>